<svg width="121" height="24" viewBox="0 0 121 24" fill="none" xmlns="http://www.w3.org/2000/svg">
<path d="M12.1085 16.84L7.40617 19.4721L8.45639 14.1866L4.5 10.5279L9.85136 9.89337L12.1085 5L14.3655 9.89337L19.7169 10.5279L15.7605 14.1866L16.8107 19.4721L12.1085 16.84Z" fill="#E08F1F"/>
<path d="M36.1085 16.84L31.4062 19.4721L32.4564 14.1866L28.5 10.5279L33.8514 9.89337L36.1085 5L38.3655 9.89337L43.7169 10.5279L39.7605 14.1866L40.8107 19.4721L36.1085 16.84Z" fill="#E08F1F"/>
<path d="M60.1085 16.8383L55.4062 19.47L56.4564 14.1852L52.5 10.5271L57.8514 9.89265L60.1085 5L62.3655 9.89265L67.7169 10.5271L63.7605 14.1852L64.8107 19.47L60.1085 16.8383ZM60.1085 15.3105L62.9396 16.895L62.3073 13.7132L64.6893 11.5106L61.4674 11.1287L60.1085 8.18288L58.7495 11.1287L55.5275 11.5106L57.9096 13.7132L57.2773 16.895L60.1085 15.3105Z" fill="#EAECF0" fill-opacity="0.44"/>
<path d="M84.1085 16.8383L79.4062 19.47L80.4564 14.1852L76.5 10.5271L81.8514 9.89265L84.1085 5L86.3655 9.89265L91.7169 10.5271L87.7605 14.1852L88.8107 19.47L84.1085 16.8383ZM84.1085 15.3105L86.9396 16.895L86.3073 13.7132L88.6893 11.5106L85.4674 11.1287L84.1085 8.18288L82.7495 11.1287L79.5275 11.5106L81.9096 13.7132L81.2773 16.895L84.1085 15.3105Z" fill="#EAECF0" fill-opacity="0.44"/>
<path d="M108.108 16.8383L103.406 19.47L104.456 14.1852L100.5 10.5271L105.851 9.89265L108.108 5L110.366 9.89265L115.717 10.5271L111.761 14.1852L112.811 19.47L108.108 16.8383ZM108.108 15.3105L110.94 16.895L110.307 13.7132L112.689 11.5106L109.467 11.1287L108.108 8.18288L106.749 11.1287L103.528 11.5106L105.91 13.7132L105.277 16.895L108.108 15.3105Z" fill="#EAECF0" fill-opacity="0.44"/>
</svg>
