<svg width="121" height="24" viewBox="0 0 121 24" fill="none" xmlns="http://www.w3.org/2000/svg">
<path d="M12.1085 16.84L7.40617 19.4721L8.45639 14.1866L4.5 10.5279L9.85136 9.89337L12.1085 5L14.3655 9.89337L19.7169 10.5279L15.7605 14.1866L16.8107 19.4721L12.1085 16.84Z" fill="#E08F1F"/>
<path d="M36.1085 16.84L31.4062 19.4721L32.4564 14.1866L28.5 10.5279L33.8514 9.89337L36.1085 5L38.3655 9.89337L43.7169 10.5279L39.7605 14.1866L40.8107 19.4721L36.1085 16.84Z" fill="#E08F1F"/>
<path d="M60.1085 16.84L55.4062 19.4721L56.4564 14.1866L52.5 10.5279L57.8514 9.89337L60.1085 5L62.3655 9.89337L67.7169 10.5279L63.7605 14.1866L64.8107 19.4721L60.1085 16.84Z" fill="#E08F1F"/>
<path d="M84.1085 16.84L79.4062 19.4721L80.4564 14.1866L76.5 10.5279L81.8514 9.89337L84.1085 5L86.3655 9.89337L91.7169 10.5279L87.7605 14.1866L88.8107 19.4721L84.1085 16.84Z" fill="#E08F1F"/>
<path d="M108.108 16.84L103.406 19.4721L104.456 14.1866L100.5 10.5279L105.851 9.89337L108.108 5L110.366 9.89337L115.717 10.5279L111.761 14.1866L112.811 19.4721L108.108 16.84Z" fill="#E08F1F"/>
</svg>
