<svg width="33" height="32" viewBox="0 0 33 32" fill="none" xmlns="http://www.w3.org/2000/svg">
<rect x="0.625" y="0.5" width="31" height="31" rx="7.5" fill="white"/>
<rect x="0.625" y="0.5" width="31" height="31" rx="7.5" stroke="#E4E7EC"/>
<path d="M10.9881 17.3219C11.1785 17.637 11.0774 18.0468 10.7623 18.2372C10.4472 18.4277 10.0374 18.3266 9.84692 18.0115C9.57619 17.5635 9.3925 17.1774 9.28449 16.9282C9.12983 16.5714 9.15227 16.1697 9.34069 15.8332C9.6282 15.3198 10.3545 14.1329 11.4739 13.0665C12.5906 12.0025 14.1621 11 16.1248 11C18.0875 11 19.6589 12.0025 20.7757 13.0665C21.8951 14.1329 22.6214 15.3198 22.9089 15.8332C23.0973 16.1697 23.1197 16.5714 22.9651 16.9282C22.8571 17.1774 22.6734 17.5635 22.4027 18.0115C22.2122 18.3266 21.8024 18.4277 21.4873 18.2372C21.1722 18.0468 21.0711 17.637 21.2615 17.3219C21.4793 16.9615 21.6304 16.6499 21.722 16.443C21.4515 15.9662 20.8109 14.9415 19.856 14.0318C18.8697 13.0921 17.6114 12.3333 16.1248 12.3333C14.6381 12.3333 13.3799 13.0921 12.3936 14.0318C11.4387 14.9415 10.7981 15.9662 10.5276 16.4429C10.6192 16.6499 10.7703 16.9615 10.9881 17.3219Z" fill="black"/>
<path fill-rule="evenodd" clip-rule="evenodd" d="M16.1248 13.3333C14.2838 13.3333 12.7915 14.8257 12.7915 16.6667C12.7915 18.5076 14.2838 20 16.1248 20C17.9657 20 19.4581 18.5076 19.4581 16.6667C19.4581 14.8257 17.9657 13.3333 16.1248 13.3333ZM14.1248 16.6667C14.1248 15.5621 15.0202 14.6667 16.1248 14.6667C17.2294 14.6667 18.1248 15.5621 18.1248 16.6667C18.1248 17.7712 17.2294 18.6667 16.1248 18.6667C15.0202 18.6667 14.1248 17.7712 14.1248 16.6667Z" fill="black"/>
</svg>
