<svg width="33" height="33" viewBox="0 0 33 33" fill="none" xmlns="http://www.w3.org/2000/svg">
<circle cx="16.4341" cy="16.1841" r="16.1841" fill="#F5CA40"/>
<path d="M16.4341 15.1049C18.0231 15.1049 19.3113 13.8168 19.3113 12.2278C19.3113 10.6387 18.0231 9.35059 16.4341 9.35059C14.8451 9.35059 13.557 10.6387 13.557 12.2278C13.557 13.8168 14.8451 15.1049 16.4341 15.1049ZM11.7587 17.2628C12.7519 17.2628 13.557 16.4577 13.557 15.4646C13.557 14.4714 12.7519 13.6663 11.7587 13.6663C10.7656 13.6663 9.9605 14.4714 9.9605 15.4646C9.9605 16.4577 10.7656 17.2628 11.7587 17.2628ZM22.9078 15.4646C22.9078 16.4577 22.1027 17.2628 21.1095 17.2628C20.1164 17.2628 19.3113 16.4577 19.3113 15.4646C19.3113 14.4714 20.1164 13.6663 21.1095 13.6663C22.1027 13.6663 22.9078 14.4714 22.9078 15.4646ZM16.4341 15.8242C18.4204 15.8242 20.0306 17.4344 20.0306 19.4207V23.7364H12.8377V19.4207C12.8377 17.4344 14.4479 15.8242 16.4341 15.8242ZM11.3991 19.4206C11.3991 18.9222 11.4715 18.4407 11.6064 17.9861L11.4844 17.9968C10.2231 18.1334 9.24121 19.2019 9.24121 20.4995V23.7364H11.3991V19.4206ZM23.6271 23.7364V20.4995C23.6271 19.1602 22.5811 18.065 21.2619 17.9861C21.3968 18.4407 21.4692 18.9222 21.4692 19.4206V23.7364H23.6271Z" fill="#1F2127"/>
</svg>
