<svg width="166" height="326" viewBox="0 0 166 326" fill="none" xmlns="http://www.w3.org/2000/svg">
<path fill-rule="evenodd" clip-rule="evenodd" d="M272.931 1.3972C251.967 -9.60281 165.935 47.5974 139.593 59.3763C123.375 66.6286 30.4604 123.719 27.8942 145.031C23.8921 178.276 77.823 151.059 92.5019 151.059C96.5149 151.059 113.467 146.524 112.212 149.553C104.396 168.413 -23.4326 284 3.79895 308.026C21.2272 323.402 96.8768 301.909 106.37 311.798C108.914 314.447 86.3594 359.257 81.1825 369.527C63.6014 404.402 25.8286 503.416 29.8015 508.332C39.7067 520.59 274.507 329.746 265.896 297.087C257.738 266.146 188.125 280.015 161.496 266.146C150.092 260.207 304.008 141.347 284.931 106.897C279.732 97.5077 210.979 127.55 195.447 135.59C194.658 135.998 184.394 141.532 183.762 139.742C181.137 132.3 215.811 98.7768 236.797 74.2618C255.86 51.9945 284.931 7.69355 272.931 1.3972Z" fill="#FFBA03"/>
</svg>
