<svg width="259" height="613" viewBox="0 0 259 613" fill="none" xmlns="http://www.w3.org/2000/svg">
<g clip-path="url(#clip0_1178_17963)">
<path d="M79.506 -113C79.506 -113 -128.94 127.76 220.209 276.721C569.358 425.683 975.31 122.65 975.31 122.65L1026.98 140.082C1026.98 140.082 1033.25 170.592 847.235 279.747C661.22 388.902 230.988 439.242 70.4402 250.653C-90.1073 62.0636 74.019 -106 74.019 -106" fill="#FBE74E"/>
<path d="M90.2823 139.334C90.2471 139.472 90.1298 139.577 89.9304 139.65C89.7574 139.753 89.517 139.81 89.2092 139.822C88.9278 139.862 88.6053 139.887 88.2418 139.896C88.019 139.884 87.8271 139.818 87.6659 139.698C87.4783 139.548 87.2439 139.229 86.9626 138.739C86.6814 138.249 86.2199 137.471 85.5782 136.404C85.1681 135.712 84.7725 135.007 84.3917 134.288C84.0108 133.57 83.7076 132.968 83.482 132.481C83.2301 131.965 83.1041 131.707 83.1041 131.707C83.198 131.516 83.0076 130.892 82.5331 129.833C82.0878 128.749 81.5137 127.462 80.8106 125.972C80.5587 125.456 80.1442 124.582 79.567 123.351C78.9899 122.12 78.4392 120.918 77.9148 119.745C77.4139 118.657 76.9481 117.697 76.5175 116.864C76.0604 116.002 75.8319 115.571 75.8319 115.571C75.8319 115.571 75.7307 115.901 75.5282 116.561C75.3287 117.164 75.091 117.962 74.8151 118.952C74.5129 119.914 74.2648 120.906 74.071 121.929C73.8363 122.671 73.6044 123.622 73.3754 124.783C73.1757 125.917 72.957 126.883 72.7193 127.68C72.4814 129.008 72.3141 129.795 72.2173 130.041C72.0941 130.258 71.8346 130.412 71.4388 130.503C70.7675 130.523 70.2003 130.423 69.7372 130.203C69.3034 129.957 69.0426 129.608 68.9548 129.156C68.9871 129.074 69.0576 128.799 69.1662 128.33C69.3041 127.834 69.445 127.283 69.5888 126.677C69.7327 126.07 69.8604 125.504 69.9719 124.979C70.1128 124.428 70.217 124.043 70.2845 123.823C70.3724 123.744 70.4414 123.496 70.4914 123.08C70.5413 122.664 70.6192 122.249 70.7248 121.836C70.7132 121.528 70.8703 120.67 71.1961 119.263C71.522 117.856 71.8552 116.31 72.1958 114.625C72.6741 112.975 73.0952 111.614 73.459 110.545C73.8522 109.448 74.1206 108.862 74.2643 108.786C74.3522 108.707 74.5369 108.647 74.8184 108.606C75.1291 108.539 75.4516 108.514 75.7858 108.531C76.1199 108.549 76.3808 108.633 76.5684 108.782C76.9289 108.829 77.2629 109.378 77.5704 110.427C77.6905 110.797 77.9351 111.452 78.3041 112.393C78.6468 113.305 79.0657 114.36 79.5607 115.559C80.0587 116.703 80.5567 117.846 81.0547 118.99C81.5556 120.077 81.995 121.008 82.3729 121.782C82.9559 122.902 83.369 123.804 83.6121 124.487C83.8845 125.144 84.1437 125.786 84.3898 126.413C84.6388 126.985 85.0167 127.759 85.5235 128.735C85.7402 129.389 86.061 130.188 86.4857 131.132C86.9134 132.02 87.3558 132.895 87.8128 133.757C88.2435 134.59 88.6127 135.266 88.9203 135.785C89.2659 136.641 89.5896 137.384 89.8914 138.015C90.1931 138.645 90.3234 139.085 90.2823 139.334ZM107.054 121.782C106.849 121.967 106.447 122.169 105.849 122.389C105.254 122.553 104.603 122.714 103.897 122.872C103.164 123.001 102.532 123.065 102.001 123.065C100.802 123.029 99.5873 122.769 98.3563 122.285C97.1252 121.801 95.9734 121.14 94.9007 120.301C93.8017 119.433 92.9035 118.464 92.2062 117.394C90.8408 115.227 89.883 112.747 89.3328 109.953C88.7562 107.13 88.631 104.484 88.9571 102.016C89.1129 100.656 89.3405 99.5226 89.6398 98.6169C89.9127 97.6818 90.3967 96.7161 91.0917 95.7196C91.3352 95.3415 91.6475 94.981 92.0287 94.6382C92.3835 94.266 92.6635 93.9876 92.8688 93.803C93.4553 93.2755 94.1472 92.8653 94.9447 92.5724C95.7421 92.2795 96.5043 92.1244 97.2313 92.1071C97.932 92.0604 98.4141 92.1837 98.6779 92.4769C98.8625 92.6821 98.9929 92.8566 99.0691 93.0003C99.1189 93.1146 98.9737 93.2186 98.6336 93.3123L98.1938 93.7079L99.7809 94.5879C100.109 94.717 100.502 94.9472 100.959 95.2786C101.39 95.5807 101.75 95.893 102.041 96.2155C102.278 96.4794 102.616 96.9442 103.056 97.6098C103.469 98.246 103.892 98.9526 104.326 99.7296C104.76 100.507 105.154 101.24 105.508 101.929C105.863 102.618 106.1 103.147 106.22 103.516C106.29 103.771 106.39 104 106.519 104.202C106.651 104.349 106.769 104.481 106.875 104.598C106.942 104.909 107.108 105.476 107.371 106.3C107.664 107.097 107.857 107.666 107.951 108.006C107.939 108.229 107.929 108.424 107.92 108.591C107.941 108.732 108.062 108.808 108.285 108.82C108.338 108.878 108.436 109.135 108.579 109.589C108.696 110.014 108.786 110.438 108.847 110.86C108.938 111.256 108.939 111.493 108.851 111.573C108.851 111.573 108.82 111.627 108.759 111.735C108.7 111.788 108.71 111.858 108.79 111.946C108.895 112.064 108.981 112.543 109.049 113.384C109.089 114.196 109.083 115.104 109.03 116.106C109.001 116.663 108.88 117.355 108.669 118.181C108.461 118.952 108.213 119.679 107.925 120.362C107.638 121.045 107.347 121.519 107.054 121.782ZM104.43 119.13C104.752 118.84 105.021 118.519 105.235 118.167C105.422 117.786 105.527 117.401 105.547 117.011C105.759 116.184 105.86 115.059 105.852 113.634C105.817 112.18 105.618 110.927 105.255 109.874C105.182 109.144 105.022 108.466 104.776 107.838C104.533 107.155 104.089 106.042 103.445 104.5C103.389 103.967 103.195 103.426 102.861 102.878C102.527 102.329 102.215 101.894 101.925 101.571C101.634 101.249 101.239 100.809 100.738 100.252C100.266 99.6682 99.9172 99.1331 99.6917 98.6464C99.006 97.884 98.5429 97.3987 98.3026 97.1905C98.0359 96.953 97.6945 96.8092 97.2782 96.7593C97.0818 96.7768 96.8414 96.8339 96.557 96.9305C96.302 97.0008 96.0718 97.1283 95.8666 97.3129C95.6613 97.4975 95.3856 97.9576 95.0395 98.6933C94.6669 99.3997 94.4293 99.9317 94.3266 100.289C94.2269 100.591 94.0055 100.817 93.6624 100.966C93.3487 101.089 93.1259 101.077 92.9941 100.931C92.6248 100.52 92.3346 100.728 92.1232 101.555C91.8855 102.352 91.8002 103.437 91.8672 104.809C91.8141 105.811 91.8475 106.763 91.9674 107.663C92.0903 108.507 92.2044 108.988 92.3099 109.105C92.4154 109.222 92.5033 109.408 92.5736 109.663C92.6439 109.919 92.7405 110.203 92.8635 110.517C92.9015 110.854 93.0289 111.349 93.2456 112.003C93.4623 112.657 93.6791 113.311 93.8958 113.964C94.1154 114.562 94.3014 115.005 94.4538 115.292C94.5593 115.41 94.8494 115.732 95.3241 116.26C95.7725 116.759 96.1945 117.228 96.5901 117.668C97.0384 118.166 97.4355 118.578 97.7813 118.904C98.1564 119.203 98.5067 119.445 98.832 119.629C99.131 119.785 99.4856 119.943 99.896 120.105C100.198 120.204 100.598 120.295 101.096 120.378C101.598 120.404 101.945 120.437 102.138 120.475C102.725 120.478 103.147 120.416 103.405 120.29C103.636 120.135 103.978 119.748 104.43 119.13Z" fill="#030303"/>
<path d="M174.603 218.397C174.43 218.5 174.203 218.571 173.921 218.612C173.64 218.653 173.375 218.653 173.125 218.612C172.876 218.571 172.725 218.521 172.673 218.462C172.57 218.289 172.445 218.269 172.299 218.401C172.299 218.401 172.19 218.339 171.974 218.216C171.73 218.063 171.531 217.871 171.376 217.64C171.297 217.552 171.113 217.319 170.826 216.94C170.539 216.562 170.303 216.27 170.119 216.065C169.65 215.426 169.097 214.517 168.462 213.338C167.826 212.16 167.195 210.898 166.568 209.552C165.914 208.177 165.352 206.932 164.88 205.818C164.341 204.393 163.937 203.59 163.668 203.408C163.427 203.2 162.982 203.442 162.331 204.133C161.553 205.097 160.612 205.732 159.507 206.036C158.431 206.314 157.343 206.285 156.244 205.947C155.119 205.58 154.203 204.946 153.497 204.042C153.13 203.576 152.862 203.101 152.692 202.617C152.526 202.078 152.343 201.314 152.144 200.326C151.942 198.864 151.891 197.451 151.991 196.087C152.065 194.695 152.286 193.408 152.656 192.227C153.055 191.019 153.57 189.999 154.201 189.167C154.591 188.657 155.121 188.127 155.793 187.576C156.464 187.025 157.042 186.664 157.526 186.495C158.124 186.275 158.838 186.243 159.667 186.399C160.5 186.498 161.27 186.707 161.98 187.024C162.689 187.34 163.158 187.714 163.387 188.145C164.052 189.298 164.476 190.242 164.661 190.978C164.845 191.713 164.932 192.458 164.92 193.211C164.82 194.044 164.935 195.293 165.266 196.958C165.626 198.597 166.116 200.41 166.737 202.398C167.361 204.33 168.045 206.181 168.789 207.952C169.486 209.553 170.224 210.904 171.004 212.007C171.812 213.083 172.333 213.543 172.564 213.388C172.682 213.283 172.868 213.195 173.123 213.124C173.407 213.028 173.608 212.927 173.725 212.821C173.919 212.859 174.081 212.952 174.213 213.098C174.345 213.245 174.483 213.545 174.626 214C174.723 214.284 174.801 214.665 174.859 215.143C174.92 215.565 174.953 216.014 174.955 216.489C174.958 216.964 174.923 217.367 174.849 217.698C174.802 218.058 174.72 218.292 174.603 218.397ZM157.551 203.419C158.413 203.493 159.146 203.099 159.75 202.237C160.354 201.375 160.777 200.253 161.017 198.869C161.288 197.459 161.295 195.994 161.041 194.472C161.023 193.745 160.974 193.1 160.892 192.537C160.813 191.919 160.793 191.513 160.831 191.319C160.843 190.566 160.745 190.044 160.537 189.754C160.358 189.437 160.074 189.269 159.684 189.248C159.188 189.11 158.737 189.198 158.329 189.511C157.922 189.825 157.485 190.43 157.018 191.327C156.628 191.837 156.32 192.379 156.095 192.954C155.872 193.472 155.637 194.214 155.39 195.178C155.378 195.401 155.327 195.58 155.236 195.715C155.119 195.82 154.988 195.911 154.845 195.987C154.845 195.987 154.829 196.028 154.796 196.11C154.738 196.163 154.761 196.248 154.867 196.365C155.251 196.497 155.378 196.993 155.249 197.852C155.225 199.358 155.463 200.656 155.964 201.743C156.439 202.802 156.968 203.36 157.551 203.419Z" fill="#030303"/>
<path d="M230 93.5L458.5 84.5L448 65.5L219 79L206 72L156 102.5L247.5 107.5L230 93.5Z" fill="#AE8AE7"/>
<path d="M157 105L246.5 110.5" stroke="#AE8AE7"/>
<path d="M236.5 96L410 89" stroke="#AE8AE7"/>
<path d="M164.393 357.198C163.176 356.025 162.147 354.672 161.342 353.185C160.512 351.714 159.843 350.156 159.347 348.541C158.844 346.924 158.522 345.257 158.387 343.569C158.224 341.892 158.288 340.201 158.575 338.54C158.911 340.202 159.148 341.817 159.513 343.405C159.879 344.994 160.255 346.549 160.733 348.123C161.212 349.698 161.763 351.19 162.353 352.702C162.944 354.213 163.649 355.696 164.393 357.198Z" fill="black"/>
<path d="M157.995 357.152C156.517 355.53 155.327 353.666 154.476 351.643C153.603 349.628 152.951 347.525 152.532 345.369C152.158 343.224 152 341.047 152.062 338.87C152.082 337.779 152.164 336.69 152.308 335.609C152.466 334.528 152.684 333.462 152.931 332.4C153.008 333.494 152.983 334.57 153.005 335.658L153.045 337.291C153.057 337.828 153.084 338.353 153.145 338.889C153.205 339.425 153.24 339.944 153.268 340.469C153.295 340.994 153.404 341.529 153.467 342.052C153.562 343.107 153.779 344.142 153.939 345.184C154.333 347.262 154.86 349.312 155.517 351.323C156.18 353.331 157.008 355.281 157.995 357.152Z" fill="black"/>
</g>
<defs>
<clipPath id="clip0_1178_17963">
<rect width="1027" height="690" fill="white" transform="translate(0 -77)"/>
</clipPath>
</defs>
</svg>
