<svg width="120" height="289" viewBox="0 0 120 289" fill="none" xmlns="http://www.w3.org/2000/svg">
<path fill-rule="evenodd" clip-rule="evenodd" d="M-71.8312 45.8322C-79.0113 52.7753 -94.7926 48.3132 -105.071 48.3132C-125.985 48.3132 -147.616 49.6889 -163.436 65.5105C-167.403 69.4778 -170.067 76.3314 -171.253 81.6656C-172.822 88.721 -175.155 96.2818 -173.338 103.551C-167.259 127.865 -134.325 135.196 -123.832 156.184C-119.542 164.762 -140.006 171.663 -144.154 174.423C-169.965 191.589 -172.632 213.752 -170.732 227.056C-167.389 250.45 -149.45 270.073 -125.917 273.434C-111.065 275.556 -95.7944 268.606 -82.1433 264.054C-70.7346 260.252 -53.9075 246.644 -40.974 253.11C-29.3635 258.916 -17.7671 273.192 -8.66571 282.294C-0.387283 290.57 19.1034 289.167 29.3751 288.026C34.6162 287.444 41.4839 285.35 46.0513 282.294C85.508 255.883 46.0179 223.141 46.5724 217.675C47.4813 208.711 66.442 212.789 79.9229 208.295C105.779 199.676 125.117 170.535 117.444 143.677C112.33 125.777 93.7584 116.674 77.8385 111.368C71.3006 109.189 51.0643 111.817 48.1358 103.03C46.4267 97.9031 50.5466 61.6766 49.4149 50.1205C45.1388 6.47366 -0.464462 -5.92121 -29.4986 2.45197C-51.7475 8.86696 -62.3193 36.6325 -71.8312 45.8322Z" fill="#D8863A"/>
</svg>
