<svg width="20" height="20" viewBox="0 0 20 20" fill="none" xmlns="http://www.w3.org/2000/svg">
<path d="M9.5 13.5556C9.10278 13.5556 8.76285 13.3816 8.48022 13.0338C8.19759 12.6859 8.05604 12.2673 8.05556 11.7778C8.05507 11.2883 8.19663 10.8699 8.48022 10.5227C8.76381 10.1754 9.10374 10.0012 9.5 10C9.89626 9.99882 10.2364 10.173 10.5205 10.5227C10.8046 10.8723 10.9459 11.2907 10.9444 11.7778C10.943 12.2649 10.8017 12.6836 10.5205 13.0338C10.2393 13.384 9.89915 13.5579 9.5 13.5556ZM6.15972 5.55556H12.8403L13.7611 3.28889C13.8815 2.99259 13.8723 2.7037 13.7337 2.42222C13.595 2.14074 13.3875 2 13.1111 2H5.88889C5.61204 2 5.40452 2.14074 5.26633 2.42222C5.12815 2.7037 5.119 2.99259 5.23889 3.28889L6.15972 5.55556ZM6.9 18H12.1C13.1833 18 14.1042 17.5372 14.8625 16.6116C15.6208 15.6859 16 14.5487 16 13.2C16 12.637 15.9218 12.0889 15.7653 11.5556C15.6088 11.0222 15.3861 10.5407 15.0972 10.1111L13.2194 7.33333H5.78056L3.90278 10.1111C3.61389 10.5407 3.3912 11.0222 3.23472 11.5556C3.07824 12.0889 3 12.637 3 13.2C3 14.5481 3.37628 15.6853 4.12883 16.6116C4.88139 17.5378 5.80511 18.0006 6.9 18Z" fill="#0B902B"/>
</svg>
