<svg width="124" height="124" viewBox="0 0 124 124" fill="none" xmlns="http://www.w3.org/2000/svg">
<path d="M61.1812 97.273C80.7013 97.273 96.5254 81.4489 96.5254 61.9289C96.5254 42.4089 80.7013 26.5847 61.1812 26.5847C41.6612 26.5847 25.8371 42.4089 25.8371 61.9289C25.8371 81.4489 41.6612 97.273 61.1812 97.273Z" fill="black"/>
<path d="M60.663 31.7862C83.8665 30.6375 99.9363 56.2797 88.3198 76.5967C74.8419 100.177 40.7643 95.6825 33.3244 70.2642C27.9403 51.8911 41.5478 32.7287 60.663 31.7803V31.7862Z" fill="white"/>
<path d="M61.152 37.2646C76.1791 36.6225 88.6674 50.495 86.4584 65.3926C83.3128 86.552 56.5631 94.2629 42.9085 77.2034C30.4733 61.6638 41.3534 38.1128 61.152 37.2587V37.2646Z" fill="#FEFEFE" stroke="white" stroke-width="1.17814" stroke-miterlimit="10"/>
<path d="M62.0297 58.9775C63.7556 58.9068 65.2106 60.297 65.2106 62.0289C65.2106 64.7092 61.9767 66.0876 60.0563 64.2379C58.1241 62.3764 59.3671 59.0894 62.0356 58.9775H62.0297Z" fill="white"/>
<path d="M79.9493 61.982H81.7695" stroke="white" stroke-width="1.17814" stroke-miterlimit="10"/>
<path d="M62.1124 79.5185L62.2184 82.564" stroke="white" stroke-width="1.17814" stroke-miterlimit="10"/>
<path d="M62.0945 40.7932L62.2594 45.058" stroke="white" stroke-width="1.17814" stroke-miterlimit="10"/>
<path d="M65.2109 62.0291C65.2109 60.2972 63.7559 58.9011 62.0299 58.9777C59.3614 59.0896 58.1185 62.3766 60.0506 64.2381C61.9769 66.0937 65.205 64.7093 65.205 62.0291H65.2109Z" stroke="#1F2127" stroke-width="4.7479" stroke-linecap="round" stroke-linejoin="round"/>
<path d="M64.5451 64.297L71.6139 71.3894" stroke="#1F2127" stroke-width="4.7479" stroke-linecap="round" stroke-linejoin="round"/>
<path d="M62.118 58.6949L62.2535 48.5865" stroke="#1F2127" stroke-width="4.7479" stroke-linecap="round" stroke-linejoin="round"/>
<path d="M42.4664 61.982H44.0451" stroke="white" stroke-width="1.17814" stroke-miterlimit="10"/>
<path d="M61.1519 37.2646C41.3533 38.1129 30.4732 61.6698 42.9085 77.2094C56.5572 94.263 83.3127 86.5579 86.4583 65.3986C88.6732 50.501 76.1791 36.6226 61.1519 37.2705V37.2646Z" stroke="#F5CA40" stroke-width="4.7479" stroke-linecap="round" stroke-linejoin="round"/>
<path d="M60.663 31.7874C41.5477 32.7358 27.9402 51.8923 33.3243 70.2712C40.7701 95.6896 74.8419 100.184 88.3198 76.6037C99.9362 56.2867 83.8664 30.6387 60.663 31.7932V31.7874Z" stroke="#F5CA40" stroke-width="4.7479" stroke-linecap="round" stroke-linejoin="round"/>
</svg>
