<svg width="222" height="149" viewBox="0 0 222 149" fill="none" xmlns="http://www.w3.org/2000/svg">
<g clip-path="url(#clip0_316_4703)">
<path d="M157.803 34.3419C158.906 34.3419 159.799 33.4484 159.799 32.3463C159.799 31.2441 158.906 30.3506 157.803 30.3506C156.701 30.3506 155.808 31.2441 155.808 32.3463C155.808 33.4484 156.701 34.3419 157.803 34.3419Z" fill="#56595A"/>
<path d="M147.54 45.7232C148.546 43.2752 147.377 40.4751 144.929 39.4691C142.481 38.4631 139.681 39.6321 138.675 42.0801C137.669 44.5282 138.838 47.3282 141.286 48.3342C143.734 49.3402 146.534 48.1713 147.54 45.7232Z" fill="white"/>
<g style="mix-blend-mode:soft-light" opacity="0.65">
<path d="M152.347 52.3703L153.666 94.0403L44.1346 94.8324L134.922 35.7324L152.347 52.3703Z" fill="white"/>
</g>
<path d="M164.299 90.8135L162.821 89.8179L181.251 62.4273L164.06 33.6783H157.68V31.8994H165.069L183.362 62.4849L164.299 90.8135Z" fill="#C5C1BA"/>
<path d="M163.56 88.2383C159.919 88.2383 156.967 91.1897 156.967 94.8315H170.154C170.154 91.1897 167.202 88.2383 163.56 88.2383Z" fill="#56595A"/>
<path d="M182.305 66.2198C184.384 66.2198 186.07 64.5338 186.07 62.4541C186.07 60.3744 184.384 58.6885 182.305 58.6885C180.225 58.6885 178.539 60.3744 178.539 62.4541C178.539 64.5338 180.225 66.2198 182.305 66.2198Z" fill="#56595A"/>
<path d="M152.794 40.6254L147.219 34.634L152.812 29.4258C154.467 27.8859 157.056 27.9789 158.596 29.6338C160.135 31.2887 160.042 33.8774 158.388 35.4173L152.794 40.6254Z" fill="#87837E"/>
<path d="M155.432 44.3389C155.432 37.6748 150.033 32.2764 143.369 32.2764C140.081 32.2764 137.099 33.595 134.926 35.7323L152.352 52.3746C154.263 50.2418 155.436 47.4319 155.436 44.3389H155.432Z" fill="#AEA8A4"/>
<path d="M47.4843 92.6061C46.6613 92.6061 45.7453 92.4733 45.0196 92.0175C44.347 91.5972 43.9222 90.9688 43.7629 90.1546C43.5417 89.044 43.7364 88.1634 44.3338 87.5439C45.4223 86.4155 47.3826 86.6943 47.5994 86.7297L47.4091 87.9112C46.9799 87.8448 45.7453 87.7961 45.1878 88.3758C44.878 88.6944 44.794 89.2165 44.9311 89.9201C45.0241 90.4024 45.263 90.7564 45.648 90.9998C46.71 91.6635 48.6481 91.3538 49.303 91.1812L49.9269 92.3361C49.8606 92.3538 48.5994 92.5972 47.4799 92.5972L47.4843 92.6061Z" fill="white"/>
<path d="M56.4449 95.0616C61.4363 95.0616 65.525 91.1898 65.8746 86.2869C65.9011 85.9196 65.6135 85.6055 65.2506 85.6055H47.6437C47.2764 85.6055 46.9932 85.9196 47.0197 86.2869C47.3693 91.1898 51.458 95.0616 56.4494 95.0616H56.4449Z" fill="white"/>
<path d="M43.3824 105.654H41.2319V154.895C41.2319 155.488 41.7142 155.971 42.3071 155.971H44.4577C45.0506 155.971 45.5329 155.488 45.5329 154.895V105.654H43.3824Z" fill="#2D2B31"/>
<g style="mix-blend-mode:multiply">
<path d="M45.5285 108.743L41.2319 106.579V105.654H45.5285V108.743Z" fill="#AFAFAF"/>
</g>
<path d="M58.2592 105.654H62.5602V159.391C62.5602 159.984 62.0779 160.466 61.485 160.466H59.3344C58.7415 160.466 58.2592 159.984 58.2592 159.391V105.654Z" fill="#3B393F"/>
<g style="mix-blend-mode:multiply">
<path d="M62.5602 108.743L58.2592 106.579V105.654H62.5602V108.743Z" fill="#AFAFAF"/>
</g>
<path d="M161.069 105.654H158.919V154.895C158.919 155.488 159.401 155.971 159.994 155.971H162.144C162.737 155.971 163.22 155.488 163.22 154.895V105.654H161.069Z" fill="#2D2B31"/>
<g style="mix-blend-mode:multiply">
<path d="M163.215 108.743L158.919 106.579V105.654H163.215V108.743Z" fill="#AFAFAF"/>
</g>
<path d="M175.946 105.654H180.247V159.391C180.247 159.984 179.765 160.466 179.172 160.466H177.021C176.428 160.466 175.946 159.984 175.946 159.391V105.654Z" fill="#3B393F"/>
<g style="mix-blend-mode:multiply">
<path d="M180.247 108.743L175.946 106.579V105.654H180.247V108.743Z" fill="#AFAFAF"/>
</g>
<path d="M55.9317 99.5781L188.632 99.5781V95.0602L55.9317 95.0602V99.5781Z" fill="#AEA8A4"/>
<path d="M32.3377 99.5781H55.9272V95.0602H32.3377V99.5781Z" fill="#C5C1BA"/>
<path d="M41.2274 105.654H58.3167V101.57H41.2274V105.654Z" fill="#C5C1BA"/>
<path d="M41.2319 101.57L180.247 101.57V99.6366L41.2319 99.6366V101.57Z" fill="#777068"/>
<path d="M58.3211 105.654L180.247 105.654V101.57L58.3211 101.57V105.654Z" fill="#AEA8A4"/>
<path d="M101.562 95.0619H76.875C75.1227 95.0619 73.6979 93.6415 73.6979 91.8848H101.562V95.0619Z" fill="#3E4041"/>
<path d="M119.019 91.8887H73.6979L71.7509 64.7238C71.6713 63.7193 72.4678 62.8564 73.4766 62.8564H115.089C115.992 62.8564 116.74 63.5467 116.815 64.445L119.019 91.8843V91.8887Z" fill="#3E4041"/>
<path d="M120.098 91.8887H74.7776L72.8306 64.7238C72.7509 63.7193 73.5474 62.8564 74.5563 62.8564H116.169C117.072 62.8564 117.819 63.5467 117.895 64.445L120.098 91.8843V91.8887Z" fill="#56595A"/>
<path d="M117.505 91.8887H77.1538L75.313 66.4052C75.2378 65.4538 75.99 64.6396 76.9414 64.6396H113.793C114.647 64.6396 115.355 65.2945 115.421 66.1441L117.505 91.8887Z" fill="#E2DDD4"/>
<path d="M133.78 95.0619H98.0485C97.1724 95.0619 96.46 94.3495 96.46 93.4733C96.46 92.5972 97.1724 91.8848 98.0485 91.8848H133.78C134.656 91.8848 135.369 92.5972 135.369 93.4733C135.369 94.3495 134.656 95.0619 133.78 95.0619Z" fill="#56595A"/>
<path d="M84.4196 94.0398H80.654C80.3531 94.0398 80.1053 93.7964 80.1053 93.4911C80.1053 93.1902 80.3486 92.9424 80.654 92.9424H84.4196C84.7205 92.9424 84.9683 93.1858 84.9683 93.4911C84.9683 93.792 84.7249 94.0398 84.4196 94.0398Z" fill="#56595A"/>
<path d="M113.443 87.2167H96.1414C95.7166 87.2167 95.3405 86.8715 95.3051 86.4467L93.9377 71.0434C93.8979 70.6186 94.2121 70.2734 94.6413 70.2734H111.943C112.368 70.2734 112.744 70.6186 112.779 71.0434L114.147 86.4467C114.186 86.8715 113.872 87.2167 113.443 87.2167Z" fill="white"/>
<path d="M92.6634 87.2167H81.5788C81.154 87.2167 80.7779 86.8715 80.7425 86.4467L80.0699 78.849C80.03 78.4243 80.3442 78.0791 80.7734 78.0791H91.858C92.2828 78.0791 92.6589 78.4243 92.6943 78.849L93.3669 86.4467C93.4068 86.8715 93.0926 87.2167 92.6634 87.2167Z" fill="white"/>
<path d="M84.8311 80.8713C84.9152 81.8315 84.2072 82.6059 83.2514 82.6059C82.2956 82.6059 81.446 81.8271 81.362 80.8713C81.2779 79.9155 81.9859 79.1367 82.9417 79.1367C83.8975 79.1367 84.7471 79.9155 84.8311 80.8713Z" fill="#AEA8A4"/>
<path d="M110.341 85.6013H106.328C105.704 85.6013 105.151 85.0924 105.093 84.4685L104.739 80.4551C104.682 79.8311 105.146 79.3223 105.77 79.3223H109.784C110.408 79.3223 110.961 79.8311 111.018 80.4551L111.372 84.4685C111.43 85.0924 110.965 85.6013 110.341 85.6013Z" fill="#AEA8A4"/>
<path d="M88.588 71.7994H79.6584C79.4902 71.7994 79.3398 71.6445 79.3265 71.4542V71.4233C79.3088 71.233 79.4327 71.0781 79.6008 71.0781H88.5304C88.6986 71.0781 88.849 71.233 88.8623 71.4233V71.4542C88.88 71.6445 88.7561 71.7994 88.588 71.7994Z" fill="white"/>
<path d="M88.9464 76.3219H80.0168C79.8486 76.3219 79.6982 76.167 79.6849 75.9767V75.9457C79.6672 75.7555 79.7911 75.6006 79.9593 75.6006H88.8889C89.057 75.6006 89.2075 75.7555 89.2207 75.9457V75.9767C89.2384 76.167 89.1145 76.3219 88.9464 76.3219Z" fill="white"/>
<path d="M90.9332 84.4283H82.0036C81.8355 84.4283 81.685 84.2734 81.6717 84.0832V84.0522C81.654 83.8619 81.7779 83.707 81.9461 83.707H90.8757C91.0438 83.707 91.1943 83.8619 91.2075 84.0522V84.0832C91.2252 84.2734 91.1013 84.4283 90.9332 84.4283Z" fill="#AEA8A4"/>
<path d="M91.4465 74.0514H79.8354C79.6672 74.0514 79.5168 73.8965 79.5035 73.7062V73.6752C79.4858 73.485 79.6097 73.3301 79.7778 73.3301H91.389C91.5571 73.3301 91.7076 73.485 91.7208 73.6752V73.7062C91.7385 73.8965 91.6146 74.0514 91.4465 74.0514Z" fill="white"/>
<path d="M132.762 137.232H128.594V151.583H132.762V137.232Z" fill="#AEA8A4"/>
<path d="M132.762 137.869H128.594V140.723L132.762 142.445V137.869Z" fill="#959390"/>
<path d="M126.196 130.404H135.094V136.254C135.094 137.936 133.727 139.303 132.046 139.303H129.245C127.563 139.303 126.196 137.936 126.196 136.254V130.404Z" fill="#C5C1BA"/>
<path d="M145.546 71.4014L139.342 71.9987L129.869 77.1007L145.223 77.8618L145.546 71.4014Z" fill="#953553"/>
<path d="M143.865 126.036H110.744C107.562 126.036 104.982 123.457 104.982 120.275C104.982 117.093 107.562 114.514 110.744 114.514H144.546L143.869 126.036H143.865Z" fill="#47494A"/>
<path d="M141.236 125.996C131.824 126.758 123.753 119.116 123.749 109.443L125.147 88.3089C125.147 79.6979 131.59 72.5516 139.966 71.8746C149.378 71.1135 157.449 78.7554 157.454 88.4284L156.056 109.562C156.056 118.173 149.613 125.319 141.236 125.996Z" fill="#343536"/>
<path d="M146.812 125.528C137.4 126.289 129.329 118.647 129.324 108.974L130.723 87.8402C130.723 79.2292 137.165 72.0828 145.542 71.4058C154.954 70.6447 163.025 78.2867 163.029 87.9597L161.631 109.093C161.631 117.704 155.188 124.851 146.812 125.528Z" fill="#47494A"/>
<path d="M115.717 126.037H145.161V130.166C145.161 130.785 144.661 131.29 144.042 131.29H115.717C114.266 131.29 113.093 130.113 113.093 128.666V126.042H115.717V126.037Z" fill="#AEA8A4"/>
<path d="M143.458 131.262C143.458 131.262 143.427 131.244 143.427 131.227L145.537 106.106C145.692 104.278 147.294 102.924 149.122 103.075H149.157C150.985 103.23 152.339 104.836 152.188 106.664L150.631 125.204C150.325 128.859 147.113 131.572 143.462 131.262H143.458Z" fill="#C5C1BA"/>
<path d="M150.126 106.178C148.666 106.178 147.48 107.364 147.48 108.824C147.48 110.284 148.666 111.47 150.126 111.47H154.042V106.178H150.126Z" fill="#AEA8A4"/>
<path d="M154.038 111.47C155.499 111.47 156.684 110.285 156.684 108.824C156.684 107.362 155.499 106.178 154.038 106.178C152.576 106.178 151.392 107.362 151.392 108.824C151.392 110.285 152.576 111.47 154.038 111.47Z" fill="#C5C1BA"/>
<path opacity="0.7" d="M198.403 21.2658V0.163086L183.504 0.163086V21.2658H198.403Z" stroke="white" stroke-width="0.331873" stroke-miterlimit="10"/>
<path opacity="0.7" d="M174.782 0.167969H153.679V15.0669H174.782V0.167969Z" stroke="white" stroke-width="0.331873" stroke-miterlimit="10"/>
<path opacity="0.7" d="M36.8157 50.7363H15.713V65.6352H36.8157V50.7363Z" stroke="white" stroke-width="0.331873" stroke-miterlimit="10"/>
</g>
<defs>
<clipPath id="clip0_316_4703">
<rect width="221.249" height="198" fill="white"/>
</clipPath>
</defs>
</svg>
