<svg width="17" height="16" viewBox="0 0 17 16" fill="none" xmlns="http://www.w3.org/2000/svg">
<path d="M9.90333 13.9997C9.78613 14.2017 9.6179 14.3694 9.41548 14.486C9.21307 14.6026 8.98359 14.664 8.75 14.664C8.51641 14.664 8.28693 14.6026 8.08452 14.486C7.88211 14.3694 7.71387 14.2017 7.59667 13.9997M12.75 5.33301C12.75 4.27214 12.3286 3.25473 11.5784 2.50458C10.8283 1.75444 9.81087 1.33301 8.75 1.33301C7.68913 1.33301 6.67172 1.75444 5.92157 2.50458C5.17143 3.25473 4.75 4.27214 4.75 5.33301C4.75 9.99967 2.75 11.333 2.75 11.333H14.75C14.75 11.333 12.75 9.99967 12.75 5.33301Z" stroke="#667085" stroke-width="1.66667" stroke-linecap="round" stroke-linejoin="round"/>
</svg>
