<svg width="20" height="20" viewBox="0 0 20 20" fill="none" xmlns="http://www.w3.org/2000/svg">
<path d="M3.33337 5.00033C3.33337 4.54009 3.70647 4.16699 4.16671 4.16699H15.8334C16.2936 4.16699 16.6667 4.54009 16.6667 5.00033C16.6667 5.46056 16.2936 5.83366 15.8334 5.83366H4.16671C3.70647 5.83366 3.33337 5.46056 3.33337 5.00033Z" fill="#344054"/>
<path d="M5.00004 10.0003C5.00004 9.54009 5.37314 9.16699 5.83337 9.16699H14.1667C14.6269 9.16699 15 9.54009 15 10.0003C15 10.4606 14.6269 10.8337 14.1667 10.8337H5.83337C5.37314 10.8337 5.00004 10.4606 5.00004 10.0003Z" fill="#344054"/>
<path d="M7.50004 14.167C7.0398 14.167 6.66671 14.5401 6.66671 15.0003C6.66671 15.4606 7.0398 15.8337 7.50004 15.8337H12.5C12.9603 15.8337 13.3334 15.4606 13.3334 15.0003C13.3334 14.5401 12.9603 14.167 12.5 14.167H7.50004Z" fill="#344054"/>
</svg>
