<svg width="638" height="509" viewBox="0 0 638 509" fill="none" xmlns="http://www.w3.org/2000/svg">
<line y1="497.402" x2="543.297" y2="497.402" stroke="#070606" stroke-opacity="0.09" stroke-width="0.453125"/>
<line y1="265.402" x2="543.297" y2="265.402" stroke="#070606" stroke-opacity="0.09" stroke-width="0.453125"/>
<line y1="381.402" x2="543.297" y2="381.402" stroke="#070606" stroke-opacity="0.09" stroke-width="0.453125"/>
<line y1="149.402" x2="543.297" y2="149.402" stroke="#070606" stroke-opacity="0.09" stroke-width="0.453125"/>
<line y1="33.4023" x2="543.297" y2="33.4023" stroke="#070606" stroke-opacity="0.09" stroke-width="0.453125"/>
<line y1="439.402" x2="543.297" y2="439.402" stroke="#070606" stroke-opacity="0.09" stroke-width="0.453125"/>
<line y1="207.402" x2="543.297" y2="207.402" stroke="#070606" stroke-opacity="0.09" stroke-width="0.453125"/>
<line y1="323.402" x2="543.297" y2="323.402" stroke="#070606" stroke-opacity="0.09" stroke-width="0.453125"/>
<line y1="91.4023" x2="543.297" y2="91.4023" stroke="#070606" stroke-opacity="0.09" stroke-width="0.453125"/>
<line y1="468.402" x2="543.297" y2="468.402" stroke="#070606" stroke-opacity="0.09" stroke-width="0.453125"/>
<line y1="236.402" x2="543.297" y2="236.402" stroke="#070606" stroke-opacity="0.09" stroke-width="0.453125"/>
<line y1="352.402" x2="543.297" y2="352.402" stroke="#070606" stroke-opacity="0.09" stroke-width="0.453125"/>
<line y1="120.402" x2="543.297" y2="120.402" stroke="#070606" stroke-opacity="0.09" stroke-width="0.453125"/>
<line y1="4.40234" x2="543.297" y2="4.40234" stroke="#070606" stroke-opacity="0.09" stroke-width="0.453125"/>
<line y1="410.402" x2="543.297" y2="410.402" stroke="#070606" stroke-opacity="0.09" stroke-width="0.453125"/>
<line y1="178.402" x2="543.297" y2="178.402" stroke="#070606" stroke-opacity="0.09" stroke-width="0.453125"/>
<line y1="294.402" x2="543.297" y2="294.402" stroke="#070606" stroke-opacity="0.09" stroke-width="0.453125"/>
<line y1="62.4023" x2="543.297" y2="62.4023" stroke="#070606" stroke-opacity="0.09" stroke-width="0.453125"/>
<line x1="265.754" y1="-25" x2="265.754" y2="491.306" stroke="#070606" stroke-opacity="0.09" stroke-width="0.557566"/>
<line x1="123.016" y1="-25" x2="123.016" y2="491.306" stroke="#070606" stroke-opacity="0.09" stroke-width="0.557566"/>
<line x1="408.49" y1="-25" x2="408.49" y2="491.306" stroke="#070606" stroke-opacity="0.09" stroke-width="0.557566"/>
<line x1="551.227" y1="-25" x2="551.227" y2="491.306" stroke="#070606" stroke-opacity="0.09" stroke-width="0.557566"/>
<line x1="51.6479" y1="-25" x2="51.6479" y2="491.306" stroke="#070606" stroke-opacity="0.09" stroke-width="0.557566"/>
<line x1="337.121" y1="-25" x2="337.121" y2="491.306" stroke="#070606" stroke-opacity="0.09" stroke-width="0.557566"/>
<line x1="194.385" y1="-25" x2="194.385" y2="491.306" stroke="#070606" stroke-opacity="0.09" stroke-width="0.557566"/>
<line x1="479.859" y1="-25" x2="479.859" y2="491.306" stroke="#070606" stroke-opacity="0.09" stroke-width="0.557566"/>
<line x1="622.596" y1="-25" x2="622.596" y2="491.306" stroke="#070606" stroke-opacity="0.09" stroke-width="0.557566"/>
<line x1="15.9643" y1="-25" x2="15.9643" y2="491.306" stroke="#070606" stroke-opacity="0.09" stroke-width="0.557566"/>
<line x1="301.438" y1="-25" x2="301.438" y2="491.306" stroke="#070606" stroke-opacity="0.09" stroke-width="0.557566"/>
<line x1="158.7" y1="-25" x2="158.7" y2="491.306" stroke="#070606" stroke-opacity="0.09" stroke-width="0.557566"/>
<line x1="444.175" y1="-25" x2="444.175" y2="491.306" stroke="#070606" stroke-opacity="0.09" stroke-width="0.557566"/>
<line x1="586.911" y1="-25" x2="586.911" y2="491.306" stroke="#070606" stroke-opacity="0.09" stroke-width="0.557566"/>
<line x1="87.3335" y1="-25" x2="87.3335" y2="491.306" stroke="#070606" stroke-opacity="0.09" stroke-width="0.557566"/>
<line x1="372.806" y1="-25" x2="372.806" y2="491.306" stroke="#070606" stroke-opacity="0.09" stroke-width="0.557566"/>
<line x1="230.069" y1="-25" x2="230.069" y2="491.306" stroke="#070606" stroke-opacity="0.09" stroke-width="0.557566"/>
<line x1="515.542" y1="-25" x2="515.542" y2="491.306" stroke="#070606" stroke-opacity="0.09" stroke-width="0.557566"/>
</svg>
