<svg width="184" height="89" viewBox="0 0 184 89" fill="none" xmlns="http://www.w3.org/2000/svg">
<path d="M148.19 68.3379H161.092V79.9012C161.092 82.6164 158.89 84.8193 156.174 84.8193H153.108C150.393 84.8193 148.19 82.6164 148.19 79.9012V68.3379Z" fill="#F5D05B"/>
<path d="M148.19 79.8939C148.19 82.6091 150.393 84.812 153.108 84.812H156.174C157.206 84.812 158.158 84.4973 158.948 83.9557C148.878 82.0749 149.068 71.741 149.419 68.3379H148.19V79.9012V79.8939Z" fill="#EFBF22"/>
<path d="M161.89 79.3599H157.272V77.618H161.89C162.373 77.618 162.768 77.2228 162.768 76.7398V71.829C162.768 71.346 162.373 70.9508 161.89 70.9508H157.272V69.209H161.89C163.332 69.209 164.51 70.38 164.51 71.829V76.7398C164.51 78.1816 163.339 79.3599 161.89 79.3599Z" fill="#F5D05B"/>
<path d="M141.413 107.726V55.7644C141.413 43.0227 130.984 32.5938 118.242 32.5938C105.501 32.5938 95.0715 43.0227 95.0715 55.7644V107.726" fill="#17273F"/>
<path d="M6.0411 86.9775H3.28931V176.301H6.0411V86.9775Z" fill="#2A2A2B"/>
<path d="M180.428 86.9775H177.669V176.301H180.428V86.9775Z" fill="#2A2A2B"/>
<path d="M130.311 87.8852C130.311 87.8852 136.619 95.7454 133.831 105.077C131.043 114.408 96.733 125.02 96.733 125.02C96.733 125.02 95.1302 113.8 84.694 112.154C84.694 112.154 79.3294 102.801 73.9503 96.7993C73.9503 96.7993 95.2839 95.1087 94.8009 95.1087C94.3179 95.1087 130.311 87.8779 130.311 87.8779V87.8852Z" fill="#D1D3D4"/>
<path d="M58.9251 85.3316C55.7049 85.3316 52.9824 82.8579 52.7263 79.5939C52.4555 76.1688 55.017 73.1682 58.4421 72.9047C80.1051 71.2068 88.419 49.2803 88.7629 48.3435C89.9486 45.1234 93.52 43.462 96.7402 44.633C99.9604 45.804 101.629 49.3535 100.465 52.581C100.019 53.8178 89.1801 82.975 59.4081 85.3097C59.2398 85.3243 59.0788 85.3316 58.9178 85.3316H58.9251Z" fill="#227580"/>
<path d="M87.614 53.0208C87.6579 55.0846 88.1921 57.046 88.763 59.1464C88.7849 59.2343 88.8142 59.3294 88.8362 59.4172C89.8388 63.179 90.2779 67.0651 90.717 70.9367C91.0391 73.7909 91.3538 76.711 90.739 79.514C90.4902 80.6557 90.234 81.7169 90.1462 82.8733C90.0437 84.1687 90.5268 85.3909 90.8561 86.6131C91.2147 87.9158 91.405 89.2917 91.1342 90.6163C90.9805 91.3701 90.6073 92.1825 90.8195 92.9509C90.9951 93.573 91.0244 94.1073 91.0464 94.7659C91.083 96.1052 91.3611 97.2689 92.5321 98.0666C94.0031 99.062 96.1328 98.7912 97.8014 99.4425C99.5579 100.13 101.117 101.221 102.72 102.209C103.664 102.794 104.637 103.351 105.676 103.731C106.737 104.126 107.864 104.331 108.992 104.434C111.692 104.675 114.539 104.258 116.764 102.707C118.191 101.704 119.369 100.24 121.06 99.8011C122.56 99.4059 124.331 99.8743 125.583 98.9522C126.066 98.5936 126.402 98.0593 126.842 97.6422C127.815 96.7127 129.22 96.4126 130.384 95.732C133.553 93.8804 131.891 86.6936 131.716 83.5759C131.438 78.6651 131.159 73.7543 130.881 68.8436C130.523 62.4983 130.545 55.9848 129.776 49.6689C129.703 49.0761 127.8 34.8341 107.198 37.6079C102.639 38.2226 97.9771 39.4229 94.1055 41.999C91.8148 43.5286 89.8461 45.5705 88.6678 48.0808C88.28 48.9004 87.9287 49.8006 87.775 50.7008C87.6359 51.4985 87.5847 52.267 87.5993 53.0281L87.614 53.0208Z" fill="#227580"/>
<path d="M100.202 83.2314H40.9434V84.922H100.202V83.2314Z" fill="#171E26"/>
<path d="M106.672 89.3503C106.672 89.3503 111.348 85.9106 112.526 75.3499C113.705 64.7892 115.973 52.2013 116.369 48.0516C116.632 45.2632 116.537 40.4257 116.456 37.5568C113.895 37.1543 110.85 37.103 107.213 37.5934C103.942 38.0325 101.212 38.7278 98.9358 39.5767C99.0236 40.8867 100.912 68.8144 101.944 76.8283C102.998 85.0397 106.672 89.343 106.672 89.343V89.3503Z" fill="white"/>
<path d="M105.23 47.5907C105.23 47.5907 105.222 47.5907 105.215 47.5907C103.773 47.4443 102.419 46.6539 101.585 45.461C100.758 44.2753 100.48 42.7238 100.839 41.326C100.853 41.2601 100.926 41.2162 100.992 41.2381C101.058 41.2528 101.102 41.326 101.08 41.3918C100.736 42.7238 101 44.1948 101.79 45.3219C102.58 46.449 103.868 47.2101 105.237 47.3418C105.303 47.3418 105.354 47.4077 105.347 47.4809C105.347 47.5467 105.288 47.5907 105.222 47.5907H105.23Z" fill="#A7A9AC"/>
<path d="M110.521 45.8845C110.477 45.8845 110.441 45.8626 110.419 45.826C110.382 45.7674 110.397 45.6869 110.455 45.6503C112.453 44.4135 113.895 42.3862 114.422 40.1028C114.437 40.037 114.51 39.9931 114.568 40.0077C114.634 40.0223 114.678 40.0882 114.663 40.1541C114.122 42.5107 112.636 44.5891 110.587 45.8626C110.565 45.8772 110.543 45.8845 110.521 45.8845Z" fill="#A7A9AC"/>
<path d="M114.327 29.1699L113.734 37.8058C113.712 38.0986 113.609 38.384 113.434 38.6255L109.833 43.5875C107.564 46.7126 102.617 45.2269 102.449 41.37L102.354 39.2622L102.895 31.8339L114.327 29.1772V29.1699Z" fill="#A05E47"/>
<path d="M112.607 32.0234L102.705 34.5264L102.419 38.4784C107.872 38.1491 112.614 32.0234 112.614 32.0234H112.607Z" fill="#8C4A38"/>
<path d="M105.968 7.22024L100.853 7.31488C96.4644 7.39609 92.9724 11.0197 93.0536 15.4085L93.3153 29.5529C93.3965 33.9417 97.0202 37.4337 101.409 37.3525L106.524 37.2579C110.913 37.1767 114.405 33.553 114.323 29.1642L114.062 15.0198C113.98 10.631 110.357 7.13904 105.968 7.22024Z" fill="#A05E47"/>
<path d="M94.9545 15.9442C95.8254 16.698 97.2452 16.7273 98.1454 16.0028C98.7894 16.559 99.836 16.5809 100.502 16.054C101.036 16.7859 102.193 16.9615 102.924 16.4199C103.517 16.9835 104.535 17.0274 105.171 16.5151C105.566 16.8883 106.218 16.9615 106.686 16.6834C106.745 17.0201 107.045 17.2689 107.367 17.364C107.689 17.4592 108.04 17.4372 108.377 17.4153C108.26 17.8178 108.457 18.2569 108.772 18.535C109.087 18.8131 109.496 18.9522 109.892 19.0693C109.672 19.4425 109.658 19.9255 109.862 20.3061C110.067 20.6867 110.477 20.9501 110.909 20.9648C110.536 21.1843 110.448 21.7625 110.741 22.0845C110.828 22.1796 110.946 22.2528 111.033 22.3553C111.172 22.5236 111.216 22.7578 111.326 22.9481C111.436 23.1384 111.677 23.3067 111.868 23.1896C112.014 21.9089 113.478 21.2575 114.173 20.1744C114.649 19.4279 114.744 18.4838 114.605 17.6055C114.473 16.7273 114.129 15.9003 113.785 15.0806C113.485 14.3707 113.178 13.6462 112.629 13.1119C111.904 12.4093 110.872 12.1386 109.884 11.919C105.464 10.9383 100.875 10.4846 96.3962 11.114C95.2399 11.275 94.0323 11.5384 93.1614 12.3215C92.1881 13.1998 91.7343 15.6295 93.3371 16.1052C93.8713 16.2662 94.4715 16.2223 94.9618 15.9442H94.9545Z" fill="#8C4A38"/>
<path d="M103.444 22.8899C103.495 23.3144 103.773 23.6291 104.059 23.5998C104.352 23.5632 104.542 23.19 104.491 22.7655C104.439 22.341 104.161 22.0263 103.876 22.0556C103.583 22.0922 103.393 22.4654 103.444 22.8899Z" fill="#15191C"/>
<path d="M95.1667 23.2991C95.2179 23.7236 95.496 24.0383 95.7814 24.009C96.0742 23.9724 96.2644 23.5992 96.2132 23.1747C96.162 22.7502 95.8839 22.4355 95.5985 22.4648C95.3057 22.5014 95.1154 22.8746 95.1667 23.2991Z" fill="#15191C"/>
<path d="M93.8274 20.6727C93.7396 20.6727 93.6444 20.6435 93.5712 20.5849C93.3736 20.4385 93.3297 20.1678 93.4761 19.9702C94.9398 17.9722 97.9258 18.7187 98.0502 18.7553C98.2844 18.8138 98.4235 19.0553 98.3649 19.2895C98.3064 19.5237 98.0575 19.6628 97.8307 19.6042C97.8087 19.5969 95.2984 18.9748 94.186 20.4825C94.0982 20.5996 93.9664 20.6654 93.8274 20.6654V20.6727Z" fill="#171E26"/>
<path d="M99.8213 31.0944C98.6943 31.0944 97.9331 30.9408 97.9112 30.9334C97.8453 30.9188 97.8014 30.8529 97.816 30.7871C97.8307 30.7212 97.8966 30.6773 97.9624 30.6919C98.0356 30.7066 105.501 32.1922 108.23 25.5762C108.26 25.5104 108.326 25.4811 108.391 25.5104C108.457 25.5396 108.487 25.6128 108.457 25.6714C106.525 30.3553 102.302 31.0944 99.8213 31.0944Z" fill="#442218"/>
<path d="M107.396 21.3614C107.242 21.3614 107.089 21.2809 107.008 21.1345C105.581 18.5511 102.024 19.744 101.87 19.7952C101.636 19.8757 101.387 19.7513 101.307 19.5245C101.226 19.2976 101.351 19.0414 101.578 18.9609C103.093 18.434 106.342 18.1193 107.777 20.7101C107.894 20.9223 107.82 21.1931 107.601 21.3102C107.535 21.3468 107.462 21.3687 107.389 21.3687L107.396 21.3614Z" fill="#171E26"/>
<path d="M94.8886 14.7223C95.174 15.22 95.7375 15.5493 96.3157 15.5493C96.8939 15.5493 97.4574 15.2127 97.7355 14.7077C98.5259 15.564 100.077 15.5274 100.824 14.6418C100.853 15.2785 101.483 15.7543 102.119 15.8201C102.749 15.886 103.371 15.6372 103.949 15.3664C104.278 15.8787 104.966 16.0616 105.574 15.9665C106.181 15.8714 106.715 15.5493 107.242 15.2346C107.323 15.7762 107.806 16.1861 108.325 16.3471C108.845 16.5081 109.409 16.4715 109.95 16.4276C109.57 16.9252 109.489 17.6351 109.745 18.206C110.001 18.7768 110.587 19.1867 111.209 19.2379C110.777 19.6185 110.616 20.2918 110.836 20.826C111.055 21.3603 111.633 21.7335 112.212 21.6969C111.758 21.6677 111.392 22.1507 111.443 22.6044C111.487 23.0509 111.853 23.4168 112.263 23.5998C112.636 23.7608 113.119 23.7901 113.412 23.5046C113.295 23.8486 113.507 24.2731 113.851 24.3902C114.195 24.5073 114.619 24.3024 114.737 23.9584C115.739 24.5365 117.013 24.0242 117.964 23.3656C118.498 22.9923 119.033 22.5386 119.208 21.9165C119.384 21.2871 119.025 20.4821 118.381 20.4162C119.186 20.1088 119.999 19.6258 120.365 18.8427C120.73 18.0596 120.438 16.9325 119.611 16.6764C120.306 16.1934 121.045 15.6518 121.301 14.8394C121.565 14.0344 121.031 12.9439 120.182 12.9952C120.591 12.3731 120.921 11.6485 120.855 10.902C120.789 10.1555 120.225 9.42369 119.479 9.37246C119.508 8.92602 119.669 8.49423 119.742 8.0478C119.816 7.60136 119.801 7.11102 119.523 6.75241C119.252 6.3938 118.659 6.26206 118.345 6.5914C118.447 6.20351 118.55 5.78636 118.403 5.40579C118.257 5.02522 117.759 4.76907 117.437 5.0179C117.225 4.308 116.354 3.88353 115.666 4.14699C115.864 3.26876 115.41 2.28808 114.619 1.8636C113.822 1.43912 112.761 1.61477 112.138 2.27344C111.721 1.71723 110.792 1.666 110.309 2.16366C110.162 1.41717 109.087 1.05855 108.523 1.57086C107.82 0.853635 106.979 0.187644 105.984 0.0266354C104.988 -0.127055 103.825 0.392564 103.576 1.37325C103.371 1.04392 102.859 1.05855 102.558 1.30007C102.258 1.54158 102.112 1.92215 101.988 2.28076C101.322 1.70991 100.143 1.95142 99.7481 2.73451C99.3383 2.32467 98.804 1.99533 98.2258 2.00997C97.6477 2.01729 97.0549 2.47104 97.0549 3.04921C96.4035 2.81501 95.6497 2.77842 95.0569 3.12971C94.4641 3.481 94.1201 4.28605 94.4348 4.90081C93.8274 4.83494 93.1907 5.12768 92.854 5.63998C92.5173 6.15228 92.4954 6.85487 92.7955 7.38912C92.2027 7.47695 91.6245 7.8136 91.383 8.35518C91.1415 8.89675 91.3537 9.65056 91.9026 9.87012C90.9878 10.1116 90.6438 11.4802 91.3391 12.1242C91.4927 12.2706 91.705 12.4243 91.6757 12.6292C91.6611 12.7536 91.5659 12.8488 91.4854 12.9512C91.1415 13.405 91.2293 14.1222 91.6757 14.4735C91.2951 14.4735 91.0317 14.9492 91.1634 15.3078C91.2951 15.6664 91.6757 15.886 92.0636 15.9299C91.6684 16.1202 91.4122 16.5739 91.4488 17.0131C91.4928 17.4522 91.8294 17.8474 92.2539 17.9645C91.9758 18.0084 91.9977 18.4109 92.1002 18.6744C92.1807 18.8866 92.2758 19.1208 92.4734 19.2306C92.8394 19.4355 93.3078 19.0769 93.3736 18.667C93.4688 18.0962 93.1687 17.6644 93.2565 17.0936C93.3663 16.3983 93.4761 15.8128 93.198 15.1249C93.5127 15.3883 95.2472 15.3371 94.8959 14.715L94.8886 14.7223Z" fill="#171E26"/>
<path d="M116.771 24.3165C116.8 25.7363 115.666 26.9146 114.246 26.9365C112.826 26.9658 111.648 25.8314 111.626 24.4116C111.597 22.9918 112.731 21.8135 114.151 21.7916C115.571 21.7623 116.749 22.8967 116.771 24.3165Z" fill="#A05E47"/>
<path d="M114.268 26.2711C114.232 26.2711 114.195 26.2564 114.166 26.2198C114.122 26.1686 114.136 26.0881 114.188 26.0442C114.868 25.5172 115.205 24.9537 115.19 24.3682C115.161 23.3509 114.071 22.5825 114.056 22.5752C113.997 22.5386 113.983 22.4581 114.027 22.3995C114.071 22.341 114.144 22.3263 114.202 22.3703C114.253 22.4069 115.41 23.2192 115.446 24.3609C115.468 25.0269 115.095 25.6636 114.349 26.2418C114.327 26.2564 114.297 26.2711 114.275 26.2711H114.268Z" fill="#663022"/>
<path d="M113.412 25.3784C113.412 25.3784 113.397 25.3784 113.39 25.3784C113.324 25.3638 113.28 25.2979 113.295 25.232C113.405 24.6685 113.653 24.266 114.034 24.0537C114.627 23.7171 115.307 23.9513 115.337 23.9659C115.403 23.9879 115.432 24.0611 115.41 24.1269C115.388 24.1928 115.315 24.2221 115.249 24.2001C115.249 24.2001 114.641 23.9952 114.151 24.2733C113.836 24.4489 113.631 24.7929 113.536 25.2833C113.522 25.3418 113.47 25.3857 113.412 25.3857V25.3784Z" fill="#663022"/>
<path d="M97.1135 24.6017C96.5938 25.1872 96.6085 26.1679 97.1501 26.7314C97.5599 27.1559 98.16 27.3096 98.7309 27.4267C99.3017 27.5365 99.8799 27.6316 100.458 27.5877C101.036 27.5438 101.622 27.3608 102.061 26.9803C102.441 26.6509 102.705 26.1752 102.771 25.6776C102.815 25.3482 102.785 25.0043 102.624 24.7188C102.463 24.4334 102.163 24.2139 101.834 24.1992" stroke="#663022" stroke-width="0.314699" stroke-linecap="round" stroke-linejoin="round"/>
<path d="M101.109 27.4703C101.109 27.4703 100.992 25.7504 102.778 25.6699" stroke="#663022" stroke-width="0.314699" stroke-linecap="round" stroke-linejoin="round"/>
<path d="M96.7329 25.6777C96.7329 25.6777 98.1088 25.9119 98.1893 27.3025" stroke="#663022" stroke-width="0.314699" stroke-linecap="round" stroke-linejoin="round"/>
<path d="M106.43 103.972C103.407 93.1483 106.774 89.3499 106.774 89.3499C106.774 89.3499 111.582 84.366 112.534 75.3495C113.405 67.0795 115.725 53.0059 115.725 53.0059" stroke="#376EC6" stroke-width="0.20492" stroke-linecap="round" stroke-linejoin="round"/>
<path d="M100.012 53.0137C100.012 53.0137 101.417 72.7372 101.944 77.6407C102.463 82.5441 105.354 88.1209 106.672 89.3504" stroke="#376EC6" stroke-width="0.20492" stroke-linecap="round" stroke-linejoin="round"/>
<g style="mix-blend-mode:multiply" opacity="0.6">
<path d="M131.716 83.5683C131.438 78.6576 131.159 73.7468 130.881 68.8361C130.523 62.4908 130.545 55.9773 129.776 49.6614C129.776 49.6175 129.754 49.5077 129.725 49.3467L119.603 52.8669C119.706 53.2987 127.039 72.8466 110.382 76.5206L101.278 83.2244L94.6105 85.8005H90.6146C90.6951 86.0713 90.7756 86.3348 90.8488 86.6056C91.2074 87.9083 91.3976 89.2842 91.1269 90.6088C90.9732 91.3626 90.5999 92.175 90.8122 92.9434C90.9878 93.5655 91.0171 94.0998 91.039 94.7584C91.039 94.8682 91.0464 94.9853 91.0537 95.0951C99.5652 92.7897 117.313 89.1085 131.921 93.5436C132.813 90.6015 131.84 85.9249 131.708 83.5683H131.716Z" fill="#6E5810"/>
</g>
<path d="M90.4828 68.8573C90.4828 68.8573 89.1362 59.6725 88.1263 56.6719" stroke="#376EC6" stroke-width="0.20492" stroke-linecap="round" stroke-linejoin="round"/>
<path d="M86.5455 60.4629C86.5455 60.4629 89.3119 63.0976 90.0364 66.0104" stroke="#376EC6" stroke-width="0.20492" stroke-linecap="round" stroke-linejoin="round"/>
<path d="M90.2999 81.7383C89.0411 81.6871 87.8189 81.0358 87.0798 80.0185C86.948 79.8355 86.8236 79.6379 86.6333 79.5208C86.304 79.3232 85.8868 79.433 85.5282 79.5574C83.7498 80.1795 82.1031 81.2114 80.2442 81.5554C79.9881 81.5993 79.6953 81.6286 79.4831 81.4676C79.1757 81.226 79.2489 80.7357 79.4611 80.4064C80.1491 79.3378 81.8689 79.0085 82.0885 77.757C81.1883 77.3691 80.193 77.9693 79.2269 78.1669C78.6707 78.284 78.0633 78.2547 77.5729 77.9766C77.0753 77.6985 76.724 77.135 76.7972 76.5714C76.9143 75.7005 77.873 75.2541 78.678 74.8955C80.0247 74.2954 81.2761 73.5049 82.4764 72.6487C84.1084 71.485 85.8356 70.1311 87.8409 70.2189C89.5461 70.2921 90.9952 71.4118 92.598 72.0046C93.9519 72.5096 95.5473 72.7072 96.4549 73.827C96.8793 74.3539 97.0916 75.0126 97.2892 75.6566C97.7356 77.1276 98.3211 80.6479 95.7815 80.2966C95.3571 80.238 94.9472 80.0551 94.5227 79.9965C93.8421 79.916 93.7763 80.1722 93.3079 80.604C92.4955 81.3505 91.3977 81.7749 90.2926 81.731L90.2999 81.7383Z" fill="#A05E47"/>
<path d="M81.7371 78.4885C81.7371 78.4885 83.1203 76.3076 83.6107 75.0342" stroke="#663022" stroke-width="0.314699" stroke-linecap="round" stroke-linejoin="round"/>
<path d="M77.6607 76.7686C77.6607 76.7686 81.481 75.8904 83.801 73.0801" stroke="#663022" stroke-width="0.314699" stroke-linecap="round" stroke-linejoin="round"/>
<path d="M139.993 76.2927L128.342 45.7523C127.12 42.5395 123.526 40.9294 120.306 42.1589C117.093 43.3811 115.483 46.9818 116.713 50.1947L125.144 72.2968H95.7376C95.7376 72.2968 93.769 77.01 95.7376 84.7457H134.182C136.231 84.7457 138.149 83.7357 139.305 82.0525C140.469 80.3692 140.725 78.2175 139.993 76.3001V76.2927Z" fill="#227580"/>
<path d="M117.737 52.874L125.144 72.2902L100.414 72.4512L95.7376 72.2902C95.7376 72.2902 93.6372 77.1058 95.7376 84.7391" stroke="#376EC6" stroke-width="0.20492" stroke-linecap="round" stroke-linejoin="round"/>
<path d="M125.246 72.3848C126.585 72.8897 127.815 73.6728 128.832 74.6755" stroke="#376EC6" stroke-width="0.20492" stroke-linecap="round" stroke-linejoin="round"/>
<path d="M125.605 72.0332C126.3 72.2601 127.01 72.4504 127.727 72.6114" stroke="#376EC6" stroke-width="0.20492" stroke-linecap="round" stroke-linejoin="round"/>
<path d="M124.888 73.248C125.583 73.7311 126.256 74.2361 126.915 74.763" stroke="#376EC6" stroke-width="0.20492" stroke-linecap="round" stroke-linejoin="round"/>
<path d="M129.608 49.0674L138.061 71.2207" stroke="#376EC6" stroke-width="0.20492" stroke-linecap="round" stroke-linejoin="round"/>
<path d="M115.388 54.8796C115.388 54.8796 118.147 39.8985 124.236 40.623L126.973 43.287C126.973 43.287 131.899 32.3603 114.188 31.0869L113.727 37.7907C113.727 37.7907 116.383 39.8692 115.388 54.8723V54.8796Z" fill="#F5CA40"/>
<path d="M99.9676 54.0896C99.9676 54.0896 98.9357 43.2874 93.3882 42.5482C93.3882 42.5482 88.1847 35.8736 94.4494 33.4658C94.4494 33.4658 97.0329 37.6008 102.5 37.33L102.419 38.4644C102.419 38.4644 100.253 39.1304 99.7481 39.2987C99.2431 39.4671 100.26 50.5254 99.975 54.0823L99.9676 54.0896Z" fill="#F5CA40"/>
<g style="mix-blend-mode:multiply" opacity="0.6">
<path d="M113.734 37.7985C113.734 37.7985 114.846 38.6768 115.359 43.3607C116.083 40.0161 118.045 35.5664 123.307 33.3415C121.287 32.2364 118.381 31.3948 114.195 31.0947L113.734 37.7985Z" fill="#F5CA40"/>
</g>
<g style="mix-blend-mode:multiply" opacity="0.6">
<path d="M102.412 38.4712L102.493 37.3369C97.0257 37.6003 94.4422 33.4727 94.4422 33.4727C92.5467 34.2045 91.7051 35.3243 91.4489 36.5318C93.5786 36.5318 97.494 36.8904 99.7116 39.3422C99.7189 39.3275 99.7262 39.3129 99.7409 39.3129C100.246 39.1446 102.412 38.4786 102.412 38.4786V38.4712Z" fill="#F5CA40"/>
</g>
<path d="M115.6 44.033C115.6 44.033 115.293 37.9732 120.672 34.8848" stroke="#376EC6" stroke-width="0.20492" stroke-linecap="round" stroke-linejoin="round"/>
<path d="M94.6178 36.5898C94.6178 36.5898 98.4747 37.3656 99.7335 39.2977" stroke="#376EC6" stroke-width="0.20492" stroke-linecap="round" stroke-linejoin="round"/>
<path d="M118.528 45.2703C118.528 45.2703 121.448 38.0615 126.446 41.4792" stroke="#376EC6" stroke-width="0.20492" stroke-linecap="round" stroke-linejoin="round"/>
<path d="M80.5515 84.9294H40.936C40.8189 84.9294 40.7165 84.8342 40.7019 84.7171L37.1304 55.6038C37.1157 55.4867 37.1963 55.3916 37.3134 55.3916H76.9288C77.0459 55.3916 77.1484 55.4867 77.163 55.6038L80.7345 84.7171C80.7491 84.8342 80.6686 84.9294 80.5515 84.9294Z" fill="#2A2A2B"/>
<path d="M55.7781 73.4981C56.0855 73.7836 56.51 73.8934 56.9198 73.9519C57.5858 74.047 58.325 74.0251 58.8666 73.6226C59.5472 73.1176 59.7155 72.1808 59.7521 71.3392C59.8326 69.6413 58.8154 67.7531 57.4834 69.6559C56.8393 70.578 54.4315 72.254 55.7708 73.4981H55.7781Z" fill="white"/>
<path d="M56.2758 66.209C56.2758 66.209 54.9072 68.3314 57.5785 68.8583C57.5785 68.8583 58.7056 66.9189 56.2758 66.209Z" fill="white"/>
<path d="M115.271 24.6388C115.271 24.6388 115.271 24.6022 115.271 24.5803C115.285 24.5217 115.285 24.4778 115.285 24.4705C115.285 24.4632 115.271 24.4559 115.263 24.4486C115.242 23.9948 114.927 23.5923 114.458 23.5191C113.924 23.4386 113.427 23.7972 113.346 24.3315C113.28 24.7559 113.507 25.1511 113.873 25.3414C113.412 26.2855 112.687 27.2003 112.687 27.2003C112.856 27.7126 113.419 27.6907 113.419 27.6907C114.649 26.4246 115.095 25.2609 115.234 24.7413C115.249 24.7047 115.271 24.6681 115.278 24.6315L115.271 24.6388Z" fill="white"/>
<path d="M1.30599 84.585H183.246C183.531 84.585 183.758 84.8118 183.758 85.0973V88.8517C183.758 89.1371 183.531 89.364 183.246 89.364H1.30599C1.02057 89.364 0.793694 89.1371 0.793694 88.8517V85.0973C0.793694 84.8118 1.02057 84.585 1.30599 84.585Z" fill="#DDA878"/>
</svg>
