<svg width="20" height="20" viewBox="0 0 20 20" fill="none" xmlns="http://www.w3.org/2000/svg">
<g clip-path="url(#clip0_162_18971)">
<path d="M10 12.4997C11.3808 12.4997 12.5 11.3804 12.5 9.99967C12.5 8.61896 11.3808 7.49967 10 7.49967C8.61933 7.49967 7.50004 8.61896 7.50004 9.99967C7.50004 11.3804 8.61933 12.4997 10 12.4997Z" stroke="#667085" stroke-width="1.66667" stroke-linecap="round" stroke-linejoin="round"/>
<path d="M16.1667 12.4997C16.0558 12.751 16.0227 13.0298 16.0717 13.3002C16.1207 13.5705 16.2496 13.8199 16.4417 14.0163L16.4917 14.0663C16.6467 14.2211 16.7696 14.4049 16.8535 14.6073C16.9373 14.8096 16.9805 15.0265 16.9805 15.2455C16.9805 15.4645 16.9373 15.6814 16.8535 15.8837C16.7696 16.0861 16.6467 16.2699 16.4917 16.4247C16.3369 16.5796 16.1531 16.7026 15.9508 16.7864C15.7484 16.8703 15.5316 16.9135 15.3125 16.9135C15.0935 16.9135 14.8766 16.8703 14.6743 16.7864C14.472 16.7026 14.2882 16.5796 14.1334 16.4247L14.0834 16.3747C13.887 16.1826 13.6375 16.0537 13.3672 16.0047C13.0969 15.9557 12.8181 15.9887 12.5667 16.0997C12.3202 16.2053 12.11 16.3807 11.962 16.6043C11.8139 16.8279 11.7344 17.0899 11.7334 17.358V17.4997C11.7334 17.9417 11.5578 18.3656 11.2452 18.6782C10.9327 18.9907 10.5087 19.1663 10.0667 19.1663C9.62468 19.1663 9.20076 18.9907 8.8882 18.6782C8.57563 18.3656 8.40004 17.9417 8.40004 17.4997V17.4247C8.39359 17.1488 8.30431 16.8813 8.1438 16.6569C7.98329 16.4325 7.75899 16.2616 7.50004 16.1663C7.24869 16.0554 6.96988 16.0223 6.69955 16.0713C6.42922 16.1204 6.17977 16.2492 5.98337 16.4413L5.93337 16.4913C5.77858 16.6463 5.59477 16.7692 5.39244 16.8531C5.19011 16.937 4.97323 16.9802 4.75421 16.9802C4.53518 16.9802 4.3183 16.937 4.11597 16.8531C3.91364 16.7692 3.72983 16.6463 3.57504 16.4913C3.42008 16.3366 3.29715 16.1527 3.21327 15.9504C3.1294 15.7481 3.08623 15.5312 3.08623 15.3122C3.08623 15.0931 3.1294 14.8763 3.21327 14.6739C3.29715 14.4716 3.42008 14.2878 3.57504 14.133L3.62504 14.083C3.81715 13.8866 3.94603 13.6372 3.99504 13.3668C4.04406 13.0965 4.01097 12.8177 3.90004 12.5663C3.7944 12.3199 3.619 12.1097 3.39543 11.9616C3.17185 11.8135 2.90986 11.7341 2.64171 11.733H2.50004C2.05801 11.733 1.63409 11.5574 1.32153 11.2449C1.00897 10.9323 0.833374 10.5084 0.833374 10.0663C0.833374 9.62431 1.00897 9.20039 1.32153 8.88783C1.63409 8.57527 2.05801 8.39967 2.50004 8.39967H2.57504C2.85087 8.39322 3.11838 8.30394 3.34279 8.14343C3.5672 7.98293 3.73814 7.75862 3.83337 7.49967C3.9443 7.24833 3.97739 6.96951 3.92838 6.69918C3.87936 6.42885 3.75049 6.17941 3.55837 5.98301L3.50837 5.93301C3.35341 5.77822 3.23048 5.5944 3.14661 5.39207C3.06273 5.18974 3.01956 4.97287 3.01956 4.75384C3.01956 4.53481 3.06273 4.31794 3.14661 4.11561C3.23048 3.91328 3.35341 3.72946 3.50837 3.57467C3.66316 3.41971 3.84698 3.29678 4.04931 3.21291C4.25164 3.12903 4.46851 3.08586 4.68754 3.08586C4.90657 3.08586 5.12344 3.12903 5.32577 3.21291C5.5281 3.29678 5.71192 3.41971 5.86671 3.57467L5.91671 3.62467C6.11311 3.81679 6.36255 3.94566 6.63288 3.99468C6.90321 4.04369 7.18203 4.0106 7.43337 3.89967H7.50004C7.74651 3.79404 7.95672 3.61864 8.10478 3.39506C8.25285 3.17149 8.3323 2.9095 8.33337 2.64134V2.49967C8.33337 2.05765 8.50897 1.63372 8.82153 1.32116C9.13409 1.0086 9.55801 0.833008 10 0.833008C10.4421 0.833008 10.866 1.0086 11.1786 1.32116C11.4911 1.63372 11.6667 2.05765 11.6667 2.49967V2.57467C11.6678 2.84283 11.7472 3.10482 11.8953 3.3284C12.0434 3.55197 12.2536 3.72737 12.5 3.83301C12.7514 3.94394 13.0302 3.97703 13.3005 3.92801C13.5709 3.879 13.8203 3.75012 14.0167 3.55801L14.0667 3.50801C14.2215 3.35305 14.4053 3.23012 14.6076 3.14624C14.81 3.06237 15.0268 3.0192 15.2459 3.0192C15.4649 3.0192 15.6818 3.06237 15.8841 3.14624C16.0864 3.23012 16.2702 3.35305 16.425 3.50801C16.58 3.6628 16.7029 3.84661 16.7868 4.04894C16.8707 4.25127 16.9139 4.46815 16.9139 4.68717C16.9139 4.9062 16.8707 5.12308 16.7868 5.32541C16.7029 5.52774 16.58 5.71155 16.425 5.86634L16.375 5.91634C16.1829 6.11274 16.0541 6.36219 16.005 6.63252C15.956 6.90285 15.9891 7.18166 16.1 7.43301V7.49967C16.2057 7.74615 16.3811 7.95635 16.6047 8.10442C16.8282 8.25248 17.0902 8.33194 17.3584 8.33301H17.5C17.9421 8.33301 18.366 8.5086 18.6785 8.82116C18.9911 9.13372 19.1667 9.55765 19.1667 9.99967C19.1667 10.4417 18.9911 10.8656 18.6785 11.1782C18.366 11.4907 17.9421 11.6663 17.5 11.6663H17.425C17.1569 11.6674 16.8949 11.7469 16.6713 11.8949C16.4477 12.043 16.2723 12.2532 16.1667 12.4997Z" stroke="#667085" stroke-width="1.66667" stroke-linecap="round" stroke-linejoin="round"/>
</g>
<defs>
<clipPath id="clip0_162_18971">
<rect width="20" height="20" fill="white"/>
</clipPath>
</defs>
</svg>
