<svg width="45" height="45" viewBox="0 0 45 45" fill="none" xmlns="http://www.w3.org/2000/svg">
<circle cx="22.5" cy="22.5" r="22.5" fill="#EFB9B2"/>
<g clip-path="url(#clip0_162_19114)">
<g clip-path="url(#clip1_162_19114)">
<path d="M15.3224 16.9653C15.4237 16.8535 15.5282 16.7436 15.636 16.6357C16.1194 16.1523 16.6442 15.7354 17.1988 15.385C16.8849 15.2984 16.6027 15.2472 16.3554 15.2285C15.7831 15.1854 15.5324 15.3213 15.4255 15.4282C15.3186 15.5351 15.1827 15.7857 15.2259 16.358C15.2397 16.5417 15.2716 16.7445 15.3224 16.9653ZM30.7257 25.2104C30.7873 25.3334 30.8463 25.4554 30.9028 25.5763C31.3793 26.5974 31.6941 27.5941 31.7616 28.49C31.8289 29.3816 31.656 30.3104 30.9819 30.9845C30.3077 31.6587 29.379 31.8315 28.4874 31.7643C27.7068 31.7054 26.8497 31.4589 25.9666 31.0812L25.964 31.0824C25.8109 31.0169 25.657 30.9475 25.5025 30.8743C23.4695 29.912 21.1435 28.2202 18.9599 26.0366C16.7785 23.8553 15.0881 21.5319 14.1252 19.5004C14.0518 19.3455 13.982 19.1912 13.9163 19.0377L13.9173 19.0355C13.5381 18.1502 13.2906 17.2909 13.2315 16.5085C13.1643 15.6168 13.3372 14.6881 14.0113 14.0139C14.6855 13.3398 15.6142 13.1669 16.5058 13.2342C17.4017 13.3018 18.3984 13.6165 19.4195 14.093C19.5425 14.1505 19.6667 14.2106 19.7918 14.2734C22.7623 13.5247 26.0404 14.3121 28.364 16.6357C30.6882 18.96 31.4755 22.2392 30.7257 25.2104ZM29.6128 27.8039C29.2627 28.3575 28.8465 28.8811 28.364 29.3636C28.257 29.4706 28.1479 29.5744 28.037 29.6749C28.2553 29.7249 28.456 29.7562 28.6378 29.7699C29.2101 29.8131 29.4608 29.6772 29.5677 29.5703C29.6746 29.4634 29.8105 29.2128 29.7673 28.6404C29.7488 28.3949 29.6982 28.1151 29.6128 27.8039ZM15.636 29.3636C13.3724 27.1 12.5667 23.9306 13.2188 21.0221C14.301 23.0029 15.9237 25.1218 17.8992 27.0973C19.8763 29.0744 21.9971 30.6982 23.9794 31.7805C21.0705 32.4334 17.9001 31.6278 15.636 29.3636Z" fill="black"/>
</g>
</g>
<defs>
<clipPath id="clip0_162_19114">
<rect width="24" height="24" fill="white" transform="translate(10 11)"/>
</clipPath>
<clipPath id="clip1_162_19114">
<rect width="24" height="24" fill="white" transform="translate(10 11)"/>
</clipPath>
</defs>
</svg>
