<svg width="19" height="20" viewBox="0 0 19 20" fill="none" xmlns="http://www.w3.org/2000/svg">
<path d="M0.91762 6.64158C0.32984 7.83826 0 9.18426 0 10.6049C0 15.5754 4.02944 19.6049 9 19.6049C10.4216 19.6049 11.7684 19.2746 12.9657 18.6861C13.8385 19.0594 14.6848 19.3042 15.4564 19.3671C16.3582 19.4406 17.3 19.2715 17.9818 18.5897C18.7339 17.8376 18.8625 16.7739 18.7279 15.7777C18.6052 14.8688 18.2481 13.8588 17.726 12.8165C17.9051 12.108 18 11.3669 18 10.6049C18 5.63428 13.9706 1.60484 9 1.60484C8.2389 1.60484 7.4987 1.69953 6.79103 1.87817C5.7474 1.35479 4.73605 0.996701 3.8261 0.873321C2.82897 0.738131 1.76406 0.866271 1.01121 1.61911C0.3287 2.30162 0.16001 3.24454 0.2341 4.14731C0.29752 4.91998 0.54313 5.76745 0.91762 6.64158ZM2.3224 4.57073C2.2734 4.35819 2.24204 4.16213 2.2274 3.98371C2.17928 3.39741 2.31727 3.14147 2.42543 3.03332C2.54452 2.91423 2.84797 2.75901 3.55739 2.85519C3.75482 2.88196 3.96951 2.92687 4.2 2.99045C3.50364 3.43025 2.87203 3.96282 2.3224 4.57073ZM16.6124 15.408C16.6751 15.6366 16.7195 15.8495 16.7459 16.0454C16.8416 16.7536 16.6865 17.0565 16.5676 17.1755C16.4595 17.2835 16.204 17.4214 15.6189 17.3737C15.4419 17.3592 15.2475 17.3283 15.0368 17.28C15.6427 16.7318 16.1736 16.1021 16.6124 15.408ZM12.8812 16.4314C11.2046 15.5532 9.2571 14.1076 7.3752 12.2258C5.4954 10.346 4.05092 8.40059 3.17241 6.72526C4.06357 5.38963 5.40124 4.3781 6.96933 3.90365C7.6108 3.70955 8.2923 3.60484 9 3.60484C12.866 3.60484 16 6.73885 16 10.6049C16 11.3133 15.8951 11.9954 15.7006 12.6375C15.2261 14.2041 14.2155 15.5406 12.8812 16.4314ZM10.6052 17.4202C10.0901 17.541 9.5528 17.6049 9 17.6049C5.13401 17.6049 2 14.4709 2 10.6049C2 10.0527 2.06377 9.51586 2.18429 9.00126C3.14883 10.518 4.43475 12.1138 5.96096 13.64C7.489 15.168 9.0868 16.4552 10.6052 17.4202Z" fill="#625C5C"/>
</svg>
