<svg width="32" height="36" viewBox="0 0 32 36" fill="none" xmlns="http://www.w3.org/2000/svg">
<g clip-path="url(#clip0_256_3517)">
<path d="M23.9996 23.5235C17.5625 23.9117 12.4114 29.063 12.0232 35.5H11.9762C11.588 29.063 6.4369 23.9117 0 23.5235V23.4765C6.4369 23.0883 11.588 17.9372 11.9762 11.5H12.0232C12.4114 17.9372 17.5625 23.0883 23.9996 23.4765V23.5235Z" fill="#FEDC44"/>
</g>
<g clip-path="url(#clip1_256_3517)">
<path d="M31.9997 8.51567C27.7083 8.77447 24.2743 12.2087 24.0155 16.5H23.9841C23.7253 12.2087 20.2913 8.77447 16 8.51567V8.48433C20.2913 8.22553 23.7253 4.79146 23.9841 0.5H24.0155C24.2743 4.79146 27.7083 8.22553 31.9997 8.48433V8.51567Z" fill="#E87E38"/>
</g>
<defs>
<clipPath id="clip0_256_3517">
<rect width="24" height="24" fill="white" transform="translate(0 11.5)"/>
</clipPath>
<clipPath id="clip1_256_3517">
<rect width="16" height="16" fill="white" transform="translate(16 0.5)"/>
</clipPath>
</defs>
</svg>
