<svg width="153" height="153" viewBox="0 0 153 153" fill="none" xmlns="http://www.w3.org/2000/svg">
<path d="M149.512 64.1094V89.1913L76.5244 131.329V106.247L87.8991 99.6756L119.691 81.3281L127.793 76.6504L149.512 64.1094Z" stroke="#667085" stroke-width="1.2541" stroke-linecap="round" stroke-linejoin="round"/>
<path d="M76.0734 21.6963L3.08496 63.834L24.8059 76.375L41.1217 85.8058L61.5259 97.5818L76.5249 106.248L87.8994 99.6761L119.691 81.3287L127.793 76.6509L149.514 64.1099L76.0734 21.6963ZM56.0204 75.6727L43.7302 68.5745L41.0215 67.0069L35.6287 63.8967L43.7302 59.2189L49.1228 62.3291L64.1344 70.9949L56.0204 75.6727ZM107.401 64.8624L99.2868 69.5527L88.5642 75.7354L83.0713 66.3046L80.3499 61.6268L57.9015 57.2751L55.9199 56.8863L88.3637 38.1626L121.008 57.0117L107.401 64.8624Z" stroke="#667085" stroke-width="1.2541" stroke-linecap="round" stroke-linejoin="round"/>
<path d="M43.7305 59.2178V68.5733L41.0218 67.0057L35.6292 63.8957L43.7305 59.2178Z" stroke="#667085" stroke-width="1.2541" stroke-linecap="round" stroke-linejoin="round"/>
<path d="M64.1347 70.9938L56.0208 75.6717L43.7305 68.5733V59.2178L49.1232 62.3281L64.1347 70.9938Z" stroke="#667085" stroke-width="1.2541" stroke-linecap="round" stroke-linejoin="round"/>
<path d="M121.008 57.0102L107.401 64.8609L99.287 69.5512L88.3639 63.2431V38.1611L121.008 57.0102Z" stroke="#667085" stroke-width="1.2541" stroke-linecap="round" stroke-linejoin="round"/>
<path d="M88.3638 38.1611V63.2431L83.0714 66.3031L80.35 61.6253L57.9016 57.2736L55.92 56.8848L88.3638 38.1611Z" stroke="#667085" stroke-width="1.2541" stroke-linecap="round" stroke-linejoin="round"/>
<path d="M76.5249 106.247V131.329L3.08496 88.916V63.834L24.8059 76.375L41.1217 85.8058L61.5259 97.5818L76.5249 106.247Z" stroke="#667085" stroke-width="1.2541" stroke-linecap="round" stroke-linejoin="round"/>
</svg>
