<svg width="147" height="170" viewBox="0 0 147 170" fill="none" xmlns="http://www.w3.org/2000/svg">
<path opacity="0.4" d="M123.722 1.68945C106.136 5.3278 89.5304 16.6581 74.6339 25.9417C57.2181 36.7953 39.7007 48.08 24.0042 61.3616C17.4034 66.9469 5.69821 76.651 2.7106 85.6138C-0.164261 94.2384 21.1079 83.6766 29.3797 79.905C55.7016 67.903 80.5093 53.0555 106.387 40.193C112.226 37.2908 118.137 34.5157 124.18 32.0672C128.771 30.2071 138.546 25.7153 138.973 30.6504C139.226 33.5695 137.675 36.4354 136.306 39.0262C130.641 49.7514 116.037 69.4563 109.387 77.7798C93.1269 98.1331 75.215 117.05 55.9238 134.535C50.8948 139.093 34.6931 151.359 40.4641 147.786C63.9682 133.236 85.0647 114.702 109.47 101.532C117.394 97.2557 122.671 95.9528 119.68 106.907C115.25 123.128 106.719 137.981 102.053 154.12C101.008 157.733 99.5418 161.539 100.178 165.246C100.472 166.959 102.763 168.531 104.47 168.205C108.342 167.466 111.566 164.702 114.804 162.454C126.864 154.084 134.695 143.225 144.724 132.951" stroke="#4F4FC6" stroke-width="3" stroke-linecap="round"/>
</svg>
