<svg width="20" height="20" viewBox="0 0 20 20" fill="none" xmlns="http://www.w3.org/2000/svg">
<path d="M9.99996 10.833C10.4602 10.833 10.8333 10.4599 10.8333 9.99967C10.8333 9.53944 10.4602 9.16634 9.99996 9.16634C9.53972 9.16634 9.16663 9.53944 9.16663 9.99967C9.16663 10.4599 9.53972 10.833 9.99996 10.833Z" stroke="#667085" stroke-width="1.66667" stroke-linecap="round" stroke-linejoin="round"/>
<path d="M9.99996 4.99967C10.4602 4.99967 10.8333 4.62658 10.8333 4.16634C10.8333 3.7061 10.4602 3.33301 9.99996 3.33301C9.53972 3.33301 9.16663 3.7061 9.16663 4.16634C9.16663 4.62658 9.53972 4.99967 9.99996 4.99967Z" stroke="#667085" stroke-width="1.66667" stroke-linecap="round" stroke-linejoin="round"/>
<path d="M9.99996 16.6663C10.4602 16.6663 10.8333 16.2932 10.8333 15.833C10.8333 15.3728 10.4602 14.9997 9.99996 14.9997C9.53972 14.9997 9.16663 15.3728 9.16663 15.833C9.16663 16.2932 9.53972 16.6663 9.99996 16.6663Z" stroke="#667085" stroke-width="1.66667" stroke-linecap="round" stroke-linejoin="round"/>
</svg>
