<svg width="24" height="25" viewBox="0 0 24 25" fill="none" xmlns="http://www.w3.org/2000/svg">
<path d="M17 21.6045V19.6045C17 18.5436 16.5786 17.5262 15.8284 16.7761C15.0783 16.0259 14.0609 15.6045 13 15.6045H5C3.93913 15.6045 2.92172 16.0259 2.17157 16.7761C1.42143 17.5262 1 18.5436 1 19.6045V21.6045M23 21.6045V19.6045C22.9993 18.7182 22.7044 17.8573 22.1614 17.1568C21.6184 16.4563 20.8581 15.9561 20 15.7345M16 3.73449C16.8604 3.95479 17.623 4.45519 18.1676 5.1568C18.7122 5.85841 19.0078 6.72132 19.0078 7.60949C19.0078 8.49766 18.7122 9.36057 18.1676 10.0622C17.623 10.7638 16.8604 11.2642 16 11.4845M13 7.60449C13 9.81363 11.2091 11.6045 9 11.6045C6.79086 11.6045 5 9.81363 5 7.60449C5 5.39535 6.79086 3.60449 9 3.60449C11.2091 3.60449 13 5.39535 13 7.60449Z" stroke="#625C5C" stroke-width="2" stroke-linecap="round" stroke-linejoin="round"/>
</svg>
